<svg xmlns="http://www.w3.org/2000/svg" xml:space="preserve" width="210mm" height="297mm" version="1.1" style="shape-rendering:geometricPrecision; text-rendering:geometricPrecision; image-rendering:optimizeQuality; fill-rule:evenodd; clip-rule:evenodd"
viewBox="0 0 21000 29700"
 xmlns:xlink="http://www.w3.org/1999/xlink">

  <path id="exit.svg" class="fil0" d="M13252.12 12203.51l187.4 0 0 374.79c0,155 -126.1,281.09 -281.1,281.09l-1129.06 0c-154.98,0 -281.09,-126.09 -281.09,-281.09l0 -1836.48c0,-154.98 126.1,-281.09 281.09,-281.09l1129.06 0c155,0 281.1,126.11 281.1,281.09l0 374.79 -187.4 0 0 -374.79c0,-51.66 -42.03,-93.7 -93.7,-93.7l-1129.06 0c-51.66,0 -93.7,42.04 -93.7,93.7l0 1836.48c0,51.66 42.04,93.7 93.7,93.7l1129.06 0c51.67,0 93.69,-42.04 93.69,-93.7l0.01 -374.79zm454.44 -985.16l-132.51 132.51 215.5 215.51 -1212.05 0 0 187.39 1212.05 0 -215.5 215.5 132.52 132.51 441.7 -441.7 -441.71 -441.72zm0 0z"/>
</svg>
